<svg xmlns="http://www.w3.org/2000/svg" width="16" height="16" fill="none" viewBox="0 0 16 16"><path fill="#428BC1" d="M13.225 10.725C12.85 8.10001 10.65 6.10001 8 6.10001C5.35 6.10001 3.15 8.10001 2.775 10.7H13.225V10.725Z"/><path fill="#F2B200" d="M15.45 5.72501C15.35 5.27501 15.075 4.92501 14.675 4.70001C14.5 4.60001 14.3 4.55001 14.1 4.52501C13.925 4.50001 13.75 4.52501 13.575 4.57501C13.275 4.65001 12.975 4.80001 12.7 4.92501C12.325 5.10001 11.975 5.27501 11.65 5.27501V6.42501C12.225 6.42501 12.75 6.17501 13.2 5.95001C13.675 5.72501 13.975 5.57501 14.15 5.67501C14.275 5.75001 14.35 5.85001 14.375 5.97501C14.4 6.12501 14.4 6.32501 14.35 6.55001C14.3 6.80001 14.175 7.07501 14.025 7.40001C13.725 8.02501 13.325 8.62501 13.025 9.07501C12.925 9.25001 12.825 9.40001 12.75 9.50001L12.675 9.65C12.675 9.675 12.65 9.67501 12.65 9.70001H3.4C3.4 9.67501 3.375 9.675 3.375 9.65L3.3 9.50001C3.225 9.37501 3.125 9.22501 3.025 9.07501C2.725 8.62501 2.325 8.02501 2.025 7.40001C1.875 7.07501 1.775 6.80001 1.7 6.55001C1.65 6.30001 1.625 6.10001 1.675 5.97501C1.7 5.85001 1.775 5.75001 1.9 5.67501C2.075 5.57501 2.375 5.70001 2.85 5.95001C3.3 6.17501 3.8 6.42501 4.4 6.42501V5.27501C4.075 5.27501 3.725 5.10001 3.35 4.92501C3.075 4.77501 2.775 4.65001 2.475 4.57501C2.25 4.52501 2.075 4.50001 1.9 4.52501C1.7 4.55001 1.5 4.60001 1.325 4.70001C0.925 4.92501 0.65 5.30001 0.55 5.72501C0.425 6.30001 0.55 7.02501 1 7.92501C1.325 8.60001 1.75 9.25001 2.075 9.72501C2.175 9.87501 2.275 10.025 2.325 10.125C2.35 10.175 2.375 10.225 2.425 10.275C2.575 10.5 2.675 10.675 2.725 10.875V13.7C2.65 13.7 2.6 13.75 2.6 13.85C2.6 13.925 2.65 14 2.725 14H13.3C13.375 14 13.425 13.95 13.425 13.85C13.425 13.775 13.375 13.7 13.3 13.7V10.9C13.375 10.7 13.475 10.525 13.6 10.3C13.625 10.25 13.65 10.2 13.7 10.15C13.75 10.05 13.85 9.90001 13.95 9.75001C14.25 9.27501 14.675 8.62501 15.025 7.95001C15.45 7.05001 15.575 6.32501 15.45 5.72501"/><path fill="#42ADE2" d="M8.225 6.80001C8.35 7.20001 7.725 7.80001 6.825 8.10001C5.925 8.42501 5.075 8.35001 4.925 7.95001C4.8 7.55001 5.425 6.95001 6.325 6.65001C7.225 6.35001 8.075 6.40001 8.225 6.80001Z"/><path fill="#FFDD7D" d="M7.4 11.15H8.6V13.85H7.4V11.15Z"/><path fill="#FFCE31" d="M9.45 11.15H10.65V13.85H9.45V11.15Z"/><path fill="#fff" d="M8.6 11.15H9.45V13.85H8.6V11.15Z"/><path fill="#FFCE31" d="M11.5 11.15H12.35V13.85H11.5V11.15Z"/><path fill="#F2B200" d="M2.7 11.15H3.55V13.85H2.7V11.15Z"/><path fill="#FFCE31" d="M3.65 11.15H5.3V13.85H3.65V11.15Z"/><path fill="#F2B200" d="M7.1 8.72499C7.1 9.09999 6.425 10.05 6.425 10.05C6.425 10.05 5.75 9.09999 5.75 8.72499C5.75 8.34999 6.05 8.04999 6.425 8.04999C6.8 8.04999 7.1 8.34999 7.1 8.72499Z"/><path fill="#F2B200" d="M10.225 8.72499C10.225 9.09999 9.55 10.05 9.55 10.05C9.55 10.05 8.875 9.09999 8.875 8.72499C8.875 8.34999 9.175 8.04999 9.55 8.04999C9.925 8.04999 10.225 8.34999 10.225 8.72499Z"/><path fill="#66CAF2" d="M9.575 3.15001H6.425L7.175 1.97501H8.775L9.575 3.15001Z"/><path fill="#FFCE31" d="M3.025 8.2C3.625 7.625 4.825 7.325 5.625 7.55C5 8.125 3.825 8.425 3.025 8.2Z"/><path fill="#FFCE31" d="M13.025 8.2C12.225 8.425 11.025 8.125 10.425 7.55C11.225 7.325 12.425 7.625 13.025 8.2Z"/><path fill="#FFCE31" d="M6.65 7.52499C7.375 7.09999 8.6 7.09999 9.325 7.52499C8.6 7.94999 7.4 7.94999 6.65 7.52499"/><path fill="#428BC1" d="M8.25 1.97501L8.525 3.15001H9.575L8.775 1.97501H8.25Z"/><path fill="#42ADE2" d="M8.25 1.97501H7.7L7.475 3.15001H8.525L8.25 1.97501Z"/><path fill="#66CAF2" d="M7.7 1.97501L7.475 3.15001H6.425L7.175 1.97501H7.7Z"/><path fill="#FFDD7D" d="M2.875 10.425C4.575 10.3 6.3 10.275 8 10.275C9.7 10.275 11.425 10.3 13.125 10.425C11.425 10.55 9.7 10.575 8 10.575C6.3 10.55 4.575 10.55 2.875 10.425Z"/><path fill="#428BC1" d="M2.7 11.15H13.275V11.425H2.7V11.15Z"/><path fill="#428BC1" d="M2.7 11.425C2.76904 11.425 2.825 11.3578 2.825 11.275C2.825 11.1922 2.76904 11.125 2.7 11.125C2.63097 11.125 2.575 11.1922 2.575 11.275C2.575 11.3578 2.63097 11.425 2.7 11.425Z"/><path fill="#428BC1" d="M13.3 11.425C13.369 11.425 13.425 11.3578 13.425 11.275C13.425 11.1922 13.369 11.125 13.3 11.125C13.231 11.125 13.175 11.1922 13.175 11.275C13.175 11.3578 13.231 11.425 13.3 11.425Z"/><path fill="#FFCE31" d="M12.675 5.1C12.6 4.825 12.5 4.575 12.325 4.35C12.15 4.125 11.95 3.925 11.675 3.775C11.475 3.675 11.275 3.6 11.05 3.575C10.875 3.55 10.675 3.575 10.475 3.625C10.15 3.7 9.825 3.875 9.5 4.025C9.425 4.075 9.325 4.1 9.225 4.15C9.425 3.75 9.55 3.375 9.55 3.125H6.425C6.425 3.375 6.55 3.75 6.75 4.15C6.65 4.1 6.575 4.075 6.475 4.025C6.15 3.875 5.825 3.7 5.5 3.625C5.3 3.575 5.1 3.55 4.925 3.575C4.7 3.6 4.5 3.65 4.3 3.775C4.05 3.925 3.825 4.125 3.65 4.35C3.5 4.575 3.375 4.825 3.3 5.1C3.125 5.825 3.225 6.75 3.625 7.825C3.925 8.675 4.325 9.375 4.5 9.725H5.825C5.775 9.625 5.7 9.525 5.65 9.425C5.625 9.375 5.575 9.325 5.55 9.275C5.025 8.425 4.125 6.5 4.4 5.4C4.475 5.125 4.6 4.925 4.85 4.8C4.925 4.75 5.025 4.725 5.25 4.775C5.475 4.825 5.725 4.95 6 5.1C6.425 5.325 6.9 5.55 7.425 5.625V9.75H8.55V5.625C9.075 5.55 9.55 5.325 10 5.1C10.275 4.975 10.525 4.825 10.75 4.775C10.975 4.725 11.075 4.75 11.15 4.8C11.375 4.925 11.525 5.125 11.6 5.4C11.875 6.5 10.975 8.4 10.45 9.275C10.425 9.325 10.375 9.375 10.35 9.425C10.275 9.525 10.225 9.625 10.175 9.725H11.5C11.7 9.4 12.075 8.675 12.375 7.825C12.75 6.75 12.85 5.825 12.675 5.1Z"/><path fill="#F2B200" d="M8 4.27501C7.575 4.27501 7.2 4.10001 6.9 3.85001C6.975 4.40001 7.425 4.82501 8 4.82501C8.55 4.82501 9.025 4.40001 9.1 3.85001C8.8 4.12501 8.425 4.27501 8 4.27501Z"/></svg>