<svg width="240" height="72" viewBox="0 0 240 72" fill="none" xmlns="http://www.w3.org/2000/svg">
<path d="M0 0.810059H240V71.1901H0V0.810059" fill="black"/>
<path d="M121.05 60.9851H13.79V12.6912H121.05V60.9851Z" fill="#ED1C24"/>
<path d="M74.35 19.1121H80.959L83.895 40.4391L86.825 19.1121H93.252L87.631 54.4691H80.18L74.35 19.1121" fill="white"/>
<path d="M72.7269 40.7961L76.7489 54.459L70.4009 54.4711L67.4529 43.0001C66.9669 43.0671 66.4609 43.1071 65.9349 43.1201V54.47H59.5649V19.1121L65.9349 19.1221C73.2549 19.1161 76.7199 25.322 76.8029 31.131C76.8559 34.851 75.5389 38.5161 72.7269 40.7961V40.7961ZM65.9349 25.4731C68.8999 25.5001 70.1609 28.0601 70.1929 30.8361C70.2269 33.6751 68.8599 36.732 65.9349 36.764V25.4741" fill="white"/>
<path d="M46.412 19.1121H54.876L60.213 54.4691H53.844L53.169 49.0361H48.117L47.443 54.4691H41.073L46.412 19.1121ZM52.468 43.389L50.644 28.3171L48.819 43.389H52.468Z" fill="white"/>
<path d="M19.637 19.1119H27.855L30.591 36.9619L33.328 19.1119H41.544V54.4689H35.174V37.231L32.477 54.5289H28.704L26.007 37.231V54.4689H19.637V19.1119V19.1119ZM112.16 48.059H117.561V54.4689H105.791V19.1119H112.16V48.059V48.059ZM99.021 48.059H104.729V54.4689H92.652V19.1119H104.729V25.64H99.021V33.5369H104.729V40.0269H99.021V48.059V48.059ZM191.927 19.14H196V54.4899H191.927V19.14ZM175.021 19.14H181.636C187.541 19.14 189.589 22.0799 189.589 27.1729V46.4559C189.589 51.5489 187.541 54.489 181.636 54.489H175.021V19.14ZM185.392 26.3439C185.392 24.4409 184.369 22.874 181.415 22.874H179.095V50.754H181.415C184.369 50.754 185.392 49.1879 185.392 47.2849V26.3439V26.3439ZM158.117 19.14H162.191V48.2369C162.191 49.3599 162.481 51.0399 164.777 51.0399H165.853C168.252 51.0399 168.44 49.3599 168.44 48.2369V19.14H172.513L172.515 48.4669C172.515 52.8709 170.019 54.7759 166.676 54.7759H164.073C160.729 54.7759 158.117 52.7289 158.117 48.4659V19.14ZM202.517 48.2369C202.517 49.3599 202.816 51.0399 205.181 51.0399H206.289C208.761 51.0399 208.955 49.3599 208.955 48.2369V25.3929C208.955 24.2689 208.761 22.5909 206.289 22.5909H205.181C202.816 22.5909 202.517 24.2689 202.517 25.3929V48.2369ZM213.153 48.4669C213.153 52.8709 210.583 54.7759 207.137 54.7759H204.455C201.011 54.7759 198.319 52.7289 198.319 48.4659V25.163C198.319 20.901 201.011 18.8549 204.455 18.8549H207.137C210.583 18.8549 213.153 20.76 213.153 25.163V48.4669ZM151.347 22.9279V54.489H147.273V22.9279H141.972V19.14H156.648V22.9279H151.347ZM220.85 18.8299C217.41 18.8299 214.725 20.9079 214.725 25.1769V29.0479C214.725 31.8409 215.192 33.2749 216.232 34.5689C217.289 35.8829 220.328 37.831 222.802 39.681C224.276 40.784 224.824 41.5999 224.824 42.8489V48.2769C224.824 49.3999 224.714 51.1489 222.351 51.1489H221.359C218.889 51.1489 218.757 49.3999 218.757 48.2769V43.424L214.764 43.4139V48.4969C214.764 52.9089 217.169 54.8549 220.794 54.8549H222.808C226.478 54.8549 228.944 52.841 228.944 48.481V42.8729C228.944 39.7389 227.807 38.329 226.192 37.012C224.636 35.742 222.06 34.0389 220.464 32.7839C219.259 31.8359 218.924 31.285 218.924 29.624V25.4069C218.924 24.2809 219.044 22.5609 221.409 22.5609H222.221C224.693 22.5609 224.733 24.2839 224.733 25.4069V28.4429H228.932V25.1769C228.932 20.7639 226.308 18.8289 222.864 18.8289H220.849L220.85 18.8299ZM133.113 18.8299C129.673 18.8299 126.989 20.9079 126.989 25.1769V29.0479C126.989 31.8409 127.456 33.2749 128.496 34.5689C129.553 35.8829 132.592 37.831 135.066 39.681C136.54 40.784 137.088 41.5999 137.088 42.8489V48.2769C137.088 49.3999 136.978 51.1489 134.615 51.1489H133.623C131.153 51.1489 131.021 49.3999 131.021 48.2769V43.424L127.028 43.4139V48.4969C127.028 52.9089 129.433 54.8549 133.058 54.8549H135.072C138.742 54.8549 141.209 52.841 141.209 48.481V42.8729C141.209 39.7389 140.071 38.329 138.456 37.012C136.9 35.742 134.324 34.0389 132.728 32.7839C131.523 31.8359 131.188 31.285 131.188 29.624V25.4069C131.188 24.2809 131.308 22.5609 133.673 22.5609H134.485C136.957 22.5609 136.997 24.2839 136.997 25.4069V28.4429H141.196V25.1769C141.196 20.7639 138.572 18.8289 135.128 18.8289H133.113V18.8299ZM126.92 12.6899H228.975V14.6119H126.92V12.6909V12.6899ZM126.92 59.0629H228.975V60.9849H126.92V59.0629Z" fill="white"/>
</svg>
