<svg xmlns="http://www.w3.org/2000/svg" xmlns:xlink="http://www.w3.org/1999/xlink" width="960" height="682" version="1.1" viewBox="0 0 960 682"><desc>Created with Lunacy</desc><g id="New-group"><path id="Rectangle" fill="#7C7C7C" fill-rule="evenodd" stroke="none" d="M0 0L960 0L960 682L0 682L0 0Z"/><g id="Selecciona-Link"><path d="M326.455 366.207L320.689 366.207L320.689 312.91L326.455 312.91L326.455 366.207ZM712.893 366.207L720.979 366.207L702.979 347.574L719.678 330.207L712.119 330.207L697.002 346.695L696.861 346.695L696.861 312.91L691.096 312.91L691.096 366.207L696.861 366.207L696.861 348.91L697.002 348.91L712.893 366.207ZM445.248 321.066Q443.701 321.066 442.611 320.012Q441.521 318.957 441.521 317.34Q441.521 315.723 442.611 314.65Q443.701 313.578 445.248 313.578Q446.83 313.578 447.937 314.65Q449.045 315.723 449.045 317.34Q449.045 318.887 447.937 319.977Q446.83 321.066 445.248 321.066ZM633.229 320.012Q634.318 321.066 635.865 321.066Q637.447 321.066 638.555 319.977Q639.662 318.887 639.662 317.34Q639.662 315.723 638.555 314.65Q637.447 313.578 635.865 313.578Q634.318 313.578 633.229 314.65Q632.139 315.723 632.139 317.34Q632.139 318.957 633.229 320.012ZM243.205 357.207L243.205 364.168Q244.189 364.836 245.824 365.381Q247.459 365.926 249.287 366.295Q251.115 366.664 252.873 366.857Q254.631 367.051 255.826 367.051Q259.412 367.051 262.646 366.33Q265.881 365.609 268.359 363.992Q270.838 362.375 272.297 359.791Q273.756 357.207 273.756 353.48Q273.756 350.668 272.684 348.488Q271.611 346.309 269.783 344.516Q267.955 342.723 265.529 341.246Q263.103 339.77 260.396 338.434Q257.76 337.133 255.738 336.043Q253.717 334.953 252.311 333.793Q250.904 332.633 250.184 331.227Q249.463 329.82 249.463 327.887Q249.463 325.813 250.412 324.371Q251.361 322.93 252.873 322.016Q254.385 321.102 256.318 320.697Q258.252 320.293 260.186 320.293Q267.182 320.293 271.646 323.387L271.646 316.742Q268.236 314.949 260.783 314.949Q257.514 314.949 254.367 315.758Q251.221 316.566 248.76 318.219Q246.299 319.871 244.787 322.42Q243.275 324.969 243.275 328.414Q243.275 331.227 244.242 333.318Q245.209 335.41 246.896 337.063Q248.584 338.715 250.869 340.086Q253.154 341.457 255.791 342.793Q258.287 344.059 260.449 345.201Q262.611 346.344 264.193 347.592Q265.775 348.84 266.672 350.352Q267.568 351.863 267.568 353.902Q267.568 357.699 264.879 359.721Q262.189 361.742 256.74 361.742Q255.158 361.742 253.295 361.426Q251.432 361.109 249.586 360.529Q247.74 359.949 246.07 359.105Q244.4 358.262 243.205 357.207ZM625.951 366.207L599.795 366.207L599.795 315.793L605.701 315.793L605.701 360.863L625.951 360.863L625.951 366.207ZM286.553 349.648L311.971 349.648L311.971 346.625Q311.971 338.504 308.103 333.934Q304.236 329.363 297.17 329.363Q290.103 329.363 285.34 334.654Q280.576 339.945 280.576 348.348Q280.576 357.242 284.936 362.146Q289.295 367.051 296.924 367.051Q304.728 367.051 309.475 363.605L309.475 358.191Q304.377 362.199 298.295 362.199Q292.881 362.199 289.787 358.93Q286.693 355.66 286.553 349.648ZM341.643 349.648L367.061 349.648L367.061 346.625Q367.061 338.504 363.193 333.934Q359.326 329.363 352.26 329.363Q345.193 329.363 340.43 334.654Q335.666 339.945 335.666 348.348Q335.666 357.242 340.025 362.146Q344.385 367.051 352.014 367.051Q359.818 367.051 364.564 363.605L364.564 358.191Q359.467 362.199 353.385 362.199Q347.971 362.199 344.877 358.93Q341.783 355.66 341.643 349.648ZM400.318 364.555Q396.17 367.051 390.475 367.051Q382.775 367.051 378.047 362.041Q373.318 357.031 373.318 349.051Q373.318 340.156 378.416 334.76Q383.514 329.363 392.021 329.363Q396.768 329.363 400.389 331.121L400.389 337.027Q396.381 334.215 391.811 334.215Q386.291 334.215 382.758 338.17Q379.225 342.125 379.225 348.559Q379.225 354.887 382.547 358.543Q385.869 362.199 391.459 362.199Q396.17 362.199 400.318 359.07L400.318 364.555ZM423.732 367.051Q429.428 367.051 433.576 364.555L433.576 359.07Q429.428 362.199 424.717 362.199Q419.127 362.199 415.805 358.543Q412.482 354.887 412.482 348.559Q412.482 342.125 416.016 338.17Q419.549 334.215 425.068 334.215Q429.639 334.215 433.646 337.027L433.646 331.121Q430.025 329.363 425.279 329.363Q416.771 329.363 411.674 334.76Q406.576 340.156 406.576 349.051Q406.576 357.031 411.305 362.041Q416.033 367.051 423.732 367.051ZM462.035 362.006Q466.799 367.051 474.779 367.051Q482.971 367.051 487.84 361.865Q492.709 356.68 492.709 348.066Q492.709 339.277 488.191 334.32Q483.674 329.363 475.623 329.363Q467.186 329.363 462.228 334.461Q457.271 339.559 457.271 348.629Q457.271 356.961 462.035 362.006ZM531.803 366.207L526.037 366.207L526.037 345.676Q526.037 334.215 517.67 334.215Q513.346 334.215 510.516 337.467Q507.686 340.719 507.686 345.676L507.686 366.207L501.92 366.207L501.92 330.207L507.686 330.207L507.686 336.184L507.826 336.184Q511.904 329.363 519.639 329.363Q525.545 329.363 528.674 333.178Q531.803 336.992 531.803 344.199L531.803 366.207ZM562.67 366.207L568.436 366.207L568.436 342.793Q568.436 329.363 555.744 329.363Q548.818 329.363 543.51 332.738L543.51 338.645Q548.748 334.215 555.252 334.215Q562.67 334.215 562.67 343.391L551.877 344.902Q539.994 346.555 539.994 356.645Q539.994 361.355 543.035 364.203Q546.076 367.051 551.455 367.051Q558.768 367.051 562.529 360.582L562.67 360.582L562.67 366.207ZM680.232 366.207L674.467 366.207L674.467 345.676Q674.467 334.215 666.1 334.215Q661.775 334.215 658.945 337.467Q656.115 340.719 656.115 345.676L656.115 366.207L650.35 366.207L650.35 330.207L656.115 330.207L656.115 336.184L656.256 336.184Q660.334 329.363 668.068 329.363Q673.975 329.363 677.104 333.178Q680.232 336.992 680.232 344.199L680.232 366.207ZM448.061 366.207L442.295 366.207L442.295 330.207L448.061 330.207L448.061 366.207ZM632.912 366.207L638.678 366.207L638.678 330.207L632.912 330.207L632.912 366.207ZM303.656 336.992Q306.029 339.77 306.064 344.762L286.623 344.762Q287.291 340.051 290.139 337.133Q292.986 334.215 297.064 334.215Q301.283 334.215 303.656 336.992ZM358.746 336.992Q361.119 339.77 361.154 344.762L341.713 344.762Q342.381 340.051 345.228 337.133Q348.076 334.215 352.154 334.215Q356.373 334.215 358.746 336.992ZM466.412 337.994Q469.646 334.215 475.201 334.215Q480.791 334.215 483.797 337.871Q486.803 341.527 486.803 348.277Q486.803 354.957 483.797 358.578Q480.791 362.199 475.201 362.199Q469.717 362.199 466.447 358.508Q463.178 354.816 463.178 348.418Q463.178 341.773 466.412 337.994ZM553.986 349.191L562.67 347.996L562.67 351.582Q562.67 356.188 559.875 359.193Q557.08 362.199 552.791 362.199Q549.662 362.199 547.781 360.529Q545.9 358.859 545.9 356.223Q545.9 352.602 547.939 351.178Q549.979 349.754 553.986 349.191Z"/></g></g></svg>